<svg width="166" height="48" viewBox="0 0 166 48" fill="none" xmlns="http://www.w3.org/2000/svg">
<rect x="80.5493" y="36.9979" width="75.8006" height="10.8287" rx="5.41433" fill="#B5DCFF"/>
<rect x="147.326" y="-6.10352e-05" width="18.0478" height="10.8287" rx="5.41433" fill="#B5DCFF"/>
<rect x="0.236816" y="36.9979" width="18.0478" height="10.8287" rx="5.41433" fill="#B5DCFF"/>
<path d="M0.888 19.599C0.776 19.423 0.672 19.183 0.576 18.879C0.48 18.575 0.432 18.255 0.432 17.919C0.432 17.295 0.568 16.847 0.84 16.575C1.128 16.303 1.496 16.167 1.944 16.167H12.408C12.52 16.343 12.624 16.583 12.72 16.887C12.816 17.191 12.864 17.511 12.864 17.847C12.864 18.471 12.72 18.919 12.432 19.191C12.16 19.463 11.8 19.599 11.352 19.599H8.688V30.687C8.512 30.735 8.232 30.783 7.848 30.831C7.48 30.879 7.112 30.903 6.744 30.903C6.376 30.903 6.048 30.871 5.76 30.807C5.488 30.759 5.256 30.663 5.064 30.519C4.872 30.375 4.728 30.175 4.632 29.919C4.536 29.663 4.488 29.327 4.488 28.911V19.599H0.888ZM17.703 30.759C17.543 30.807 17.287 30.855 16.935 30.903C16.599 30.951 16.247 30.975 15.879 30.975C15.527 30.975 15.207 30.951 14.919 30.903C14.647 30.855 14.415 30.759 14.223 30.615C14.031 30.471 13.879 30.279 13.767 30.039C13.671 29.783 13.623 29.455 13.623 29.055V21.855C13.623 21.487 13.687 21.175 13.815 20.919C13.959 20.647 14.159 20.407 14.415 20.199C14.671 19.991 14.983 19.807 15.351 19.647C15.735 19.471 16.143 19.319 16.575 19.191C17.007 19.063 17.455 18.967 17.919 18.903C18.383 18.823 18.847 18.783 19.311 18.783C20.079 18.783 20.687 18.935 21.135 19.239C21.583 19.527 21.807 20.007 21.807 20.679C21.807 20.903 21.775 21.127 21.711 21.351C21.647 21.559 21.567 21.751 21.471 21.927C21.135 21.927 20.791 21.943 20.439 21.975C20.087 22.007 19.743 22.055 19.407 22.119C19.071 22.183 18.751 22.255 18.447 22.335C18.159 22.399 17.911 22.479 17.703 22.575V30.759ZM28.1306 28.191C28.4026 28.191 28.6986 28.167 29.0186 28.119C29.3546 28.055 29.6026 27.975 29.7626 27.879V25.959L28.0346 26.103C27.5866 26.135 27.2186 26.231 26.9306 26.391C26.6426 26.551 26.4986 26.791 26.4986 27.111C26.4986 27.431 26.6186 27.695 26.8586 27.903C27.1146 28.095 27.5386 28.191 28.1306 28.191ZM27.9386 18.759C28.8026 18.759 29.5866 18.847 30.2906 19.023C31.0106 19.199 31.6186 19.471 32.1146 19.839C32.6266 20.191 33.0186 20.647 33.2906 21.207C33.5626 21.751 33.6986 22.399 33.6986 23.151V28.527C33.6986 28.943 33.5786 29.287 33.3386 29.559C33.1146 29.815 32.8426 30.039 32.5226 30.231C31.4826 30.855 30.0186 31.167 28.1306 31.167C27.2826 31.167 26.5146 31.087 25.8266 30.927C25.1546 30.767 24.5706 30.527 24.0746 30.207C23.5946 29.887 23.2186 29.479 22.9466 28.983C22.6906 28.487 22.5626 27.911 22.5626 27.255C22.5626 26.151 22.8906 25.303 23.5466 24.711C24.2026 24.119 25.2186 23.751 26.5946 23.607L29.7386 23.271V23.103C29.7386 22.639 29.5306 22.311 29.1146 22.119C28.7146 21.911 28.1306 21.807 27.3626 21.807C26.7546 21.807 26.1626 21.871 25.5866 21.999C25.0106 22.127 24.4906 22.287 24.0266 22.479C23.8186 22.335 23.6426 22.119 23.4986 21.831C23.3546 21.527 23.2826 21.215 23.2826 20.895C23.2826 20.479 23.3786 20.151 23.5706 19.911C23.7786 19.655 24.0906 19.439 24.5066 19.263C24.9706 19.087 25.5146 18.959 26.1386 18.879C26.7786 18.799 27.3786 18.759 27.9386 18.759ZM43.7121 30.471C43.4881 30.647 43.1601 30.791 42.7281 30.903C42.2961 31.015 41.8081 31.071 41.2641 31.071C40.6401 31.071 40.0961 30.991 39.6321 30.831C39.1841 30.671 38.8721 30.415 38.6961 30.063C38.5521 29.791 38.3761 29.415 38.1681 28.935C37.9761 28.439 37.7681 27.895 37.5441 27.303C37.3201 26.695 37.0881 26.047 36.8481 25.359C36.6081 24.671 36.3761 23.991 36.1521 23.319C35.9441 22.647 35.7521 21.999 35.5761 21.375C35.4001 20.751 35.2561 20.199 35.1441 19.719C35.3681 19.495 35.6641 19.303 36.0321 19.143C36.4161 18.967 36.8321 18.879 37.2801 18.879C37.8401 18.879 38.2961 18.999 38.6481 19.239C39.0161 19.463 39.2881 19.895 39.4641 20.535L40.4001 24.207C40.5761 24.927 40.7441 25.583 40.9041 26.175C41.0641 26.751 41.1841 27.199 41.2641 27.519H41.3841C41.6881 26.335 42.0081 25.023 42.3441 23.583C42.6801 22.143 42.9841 20.727 43.2561 19.335C43.5281 19.191 43.8321 19.079 44.1681 18.999C44.5201 18.919 44.8561 18.879 45.1761 18.879C45.7361 18.879 46.2081 18.999 46.5921 19.239C46.9761 19.479 47.1681 19.895 47.1681 20.487C47.1681 20.743 47.1041 21.119 46.9761 21.615C46.8641 22.095 46.7121 22.647 46.5201 23.271C46.3441 23.879 46.1281 24.527 45.8721 25.215C45.6321 25.903 45.3841 26.575 45.1281 27.231C44.8721 27.887 44.6161 28.503 44.3601 29.079C44.1201 29.639 43.9041 30.103 43.7121 30.471ZM55.041 31.167C54.097 31.167 53.217 31.039 52.401 30.783C51.601 30.511 50.897 30.111 50.289 29.583C49.697 29.055 49.225 28.391 48.873 27.591C48.537 26.791 48.369 25.855 48.369 24.783C48.369 23.727 48.537 22.823 48.873 22.071C49.225 21.303 49.681 20.679 50.241 20.199C50.801 19.703 51.441 19.343 52.161 19.119C52.881 18.879 53.617 18.759 54.369 18.759C55.217 18.759 55.985 18.887 56.673 19.143C57.377 19.399 57.977 19.751 58.473 20.199C58.985 20.647 59.377 21.183 59.649 21.807C59.937 22.431 60.081 23.111 60.081 23.847C60.081 24.391 59.929 24.807 59.625 25.095C59.321 25.383 58.897 25.567 58.353 25.647L52.425 26.535C52.601 27.063 52.961 27.463 53.505 27.735C54.049 27.991 54.673 28.119 55.377 28.119C56.033 28.119 56.649 28.039 57.225 27.879C57.817 27.703 58.297 27.503 58.665 27.279C58.921 27.439 59.137 27.663 59.313 27.951C59.489 28.239 59.577 28.543 59.577 28.863C59.577 29.583 59.241 30.119 58.569 30.471C58.057 30.743 57.481 30.927 56.841 31.023C56.201 31.119 55.601 31.167 55.041 31.167ZM54.369 21.735C53.985 21.735 53.649 21.799 53.361 21.927C53.089 22.055 52.865 22.223 52.689 22.431C52.513 22.623 52.377 22.847 52.281 23.103C52.201 23.343 52.153 23.591 52.137 23.847L56.241 23.175C56.193 22.855 56.017 22.535 55.713 22.215C55.409 21.895 54.961 21.735 54.369 21.735ZM66.1969 30.759C66.0209 30.791 65.7569 30.831 65.4049 30.879C65.0689 30.943 64.7249 30.975 64.3729 30.975C64.0209 30.975 63.7009 30.951 63.4129 30.903C63.1409 30.855 62.9089 30.759 62.7169 30.615C62.5249 30.471 62.3729 30.279 62.2609 30.039C62.1649 29.783 62.1169 29.455 62.1169 29.055V15.135C62.2929 15.103 62.5489 15.063 62.8849 15.015C63.2369 14.951 63.5889 14.919 63.9409 14.919C64.2929 14.919 64.6049 14.943 64.8769 14.991C65.1649 15.039 65.4049 15.135 65.5969 15.279C65.7889 15.423 65.9329 15.623 66.0289 15.879C66.1409 16.119 66.1969 16.439 66.1969 16.839V30.759ZM73.2594 27.663C73.4354 27.695 73.6514 27.727 73.9074 27.759C74.1634 27.775 74.4034 27.783 74.6274 27.783C75.1714 27.783 75.6674 27.703 76.1154 27.543C76.5794 27.383 76.9714 27.135 77.2914 26.799C77.6274 26.463 77.8834 26.031 78.0594 25.503C78.2514 24.959 78.3474 24.311 78.3474 23.559C78.3474 22.119 78.0114 21.039 77.3394 20.319C76.6674 19.583 75.7714 19.215 74.6514 19.215C74.4274 19.215 74.1954 19.223 73.9554 19.239C73.7314 19.255 73.4994 19.279 73.2594 19.311V27.663ZM74.6034 31.167C74.3314 31.167 74.0194 31.159 73.6674 31.143C73.3154 31.127 72.9474 31.095 72.5634 31.047C72.1954 30.999 71.8194 30.935 71.4354 30.855C71.0674 30.791 70.7234 30.695 70.4034 30.567C69.5234 30.231 69.0834 29.647 69.0834 28.815V17.607C69.0834 17.271 69.1714 17.015 69.3474 16.839C69.5394 16.647 69.7954 16.495 70.1154 16.383C70.8034 16.159 71.5314 16.015 72.2994 15.951C73.0674 15.871 73.7554 15.831 74.3634 15.831C75.6114 15.831 76.7394 15.983 77.7474 16.287C78.7714 16.591 79.6434 17.063 80.3634 17.703C81.0994 18.327 81.6674 19.119 82.0674 20.079C82.4674 21.039 82.6674 22.175 82.6674 23.487C82.6674 24.767 82.4754 25.887 82.0914 26.847C81.7074 27.791 81.1554 28.591 80.4354 29.247C79.7314 29.887 78.8834 30.367 77.8914 30.687C76.8994 31.007 75.8034 31.167 74.6034 31.167ZM90.9238 31.167C89.9798 31.167 89.0998 31.039 88.2838 30.783C87.4838 30.511 86.7798 30.111 86.1718 29.583C85.5798 29.055 85.1078 28.391 84.7558 27.591C84.4198 26.791 84.2518 25.855 84.2518 24.783C84.2518 23.727 84.4198 22.823 84.7558 22.071C85.1078 21.303 85.5638 20.679 86.1238 20.199C86.6838 19.703 87.3238 19.343 88.0438 19.119C88.7638 18.879 89.4998 18.759 90.2518 18.759C91.0998 18.759 91.8678 18.887 92.5558 19.143C93.2598 19.399 93.8598 19.751 94.3558 20.199C94.8678 20.647 95.2598 21.183 95.5318 21.807C95.8198 22.431 95.9638 23.111 95.9638 23.847C95.9638 24.391 95.8118 24.807 95.5078 25.095C95.2038 25.383 94.7798 25.567 94.2358 25.647L88.3078 26.535C88.4838 27.063 88.8438 27.463 89.3878 27.735C89.9318 27.991 90.5558 28.119 91.2598 28.119C91.9158 28.119 92.5318 28.039 93.1078 27.879C93.6998 27.703 94.1798 27.503 94.5478 27.279C94.8038 27.439 95.0198 27.663 95.1958 27.951C95.3718 28.239 95.4598 28.543 95.4598 28.863C95.4598 29.583 95.1238 30.119 94.4518 30.471C93.9398 30.743 93.3638 30.927 92.7238 31.023C92.0838 31.119 91.4838 31.167 90.9238 31.167ZM90.2518 21.735C89.8678 21.735 89.5318 21.799 89.2438 21.927C88.9718 22.055 88.7478 22.223 88.5718 22.431C88.3958 22.623 88.2598 22.847 88.1638 23.103C88.0838 23.343 88.0358 23.591 88.0198 23.847L92.1238 23.175C92.0758 22.855 91.8998 22.535 91.5958 22.215C91.2918 21.895 90.8438 21.735 90.2518 21.735ZM107.768 27.303C107.768 28.519 107.312 29.471 106.4 30.159C105.488 30.847 104.144 31.191 102.368 31.191C101.696 31.191 101.072 31.143 100.496 31.047C99.9197 30.951 99.4237 30.807 99.0077 30.615C98.6077 30.407 98.2877 30.151 98.0477 29.847C97.8237 29.543 97.7117 29.183 97.7117 28.767C97.7117 28.383 97.7917 28.063 97.9517 27.807C98.1117 27.535 98.3037 27.311 98.5277 27.135C98.9917 27.391 99.5197 27.623 100.112 27.831C100.72 28.023 101.416 28.119 102.2 28.119C102.696 28.119 103.072 28.047 103.328 27.903C103.6 27.759 103.736 27.567 103.736 27.327C103.736 27.103 103.64 26.927 103.448 26.799C103.256 26.671 102.936 26.567 102.488 26.487L101.768 26.343C100.376 26.071 99.3357 25.647 98.6477 25.071C97.9757 24.479 97.6397 23.639 97.6397 22.551C97.6397 21.959 97.7677 21.423 98.0237 20.943C98.2797 20.463 98.6397 20.063 99.1037 19.743C99.5677 19.423 100.12 19.175 100.76 18.999C101.416 18.823 102.136 18.735 102.92 18.735C103.512 18.735 104.064 18.783 104.576 18.879C105.104 18.959 105.56 19.087 105.944 19.263C106.328 19.439 106.632 19.671 106.856 19.959C107.08 20.231 107.192 20.559 107.192 20.943C107.192 21.311 107.12 21.631 106.976 21.903C106.848 22.159 106.68 22.375 106.472 22.551C106.344 22.471 106.152 22.391 105.896 22.311C105.64 22.215 105.36 22.135 105.056 22.071C104.752 21.991 104.44 21.927 104.12 21.879C103.816 21.831 103.536 21.807 103.28 21.807C102.752 21.807 102.344 21.871 102.056 21.999C101.768 22.111 101.624 22.295 101.624 22.551C101.624 22.727 101.704 22.871 101.864 22.983C102.024 23.095 102.328 23.199 102.776 23.295L103.52 23.463C105.056 23.815 106.144 24.303 106.784 24.927C107.44 25.535 107.768 26.327 107.768 27.303ZM121.14 28.671C121.06 29.423 120.836 29.999 120.468 30.399C120.116 30.799 119.596 30.999 118.908 30.999C118.396 30.999 117.94 30.879 117.54 30.639C117.14 30.383 116.708 29.959 116.244 29.367L113.868 26.391V30.759C113.692 30.791 113.428 30.831 113.076 30.879C112.74 30.943 112.396 30.975 112.044 30.975C111.692 30.975 111.372 30.951 111.084 30.903C110.812 30.855 110.58 30.759 110.388 30.615C110.196 30.471 110.044 30.279 109.932 30.039C109.836 29.783 109.788 29.455 109.788 29.055V15.159C109.964 15.111 110.22 15.063 110.556 15.015C110.908 14.951 111.26 14.919 111.612 14.919C111.964 14.919 112.276 14.943 112.548 14.991C112.836 15.039 113.076 15.135 113.268 15.279C113.46 15.423 113.604 15.623 113.7 15.879C113.812 16.119 113.868 16.439 113.868 16.839V23.175L117.996 18.951C118.828 18.951 119.492 19.135 119.988 19.503C120.5 19.871 120.756 20.335 120.756 20.895C120.756 21.135 120.716 21.359 120.636 21.567C120.556 21.759 120.428 21.959 120.252 22.167C120.092 22.375 119.876 22.599 119.604 22.839C119.348 23.063 119.044 23.327 118.692 23.631L117.3 24.831L121.14 28.671ZM127.589 15.831C128.501 15.831 129.309 15.951 130.013 16.191C130.717 16.415 131.317 16.727 131.813 17.127C132.309 17.527 132.685 17.999 132.941 18.543C133.197 19.087 133.325 19.671 133.325 20.295C133.325 21.975 132.373 23.575 130.469 25.095L127.325 27.615H133.085C133.181 27.791 133.269 28.015 133.349 28.287C133.445 28.559 133.493 28.855 133.493 29.175C133.493 29.751 133.365 30.167 133.109 30.423C132.853 30.663 132.517 30.783 132.101 30.783H123.773C123.421 30.543 123.141 30.239 122.933 29.871C122.741 29.487 122.645 29.039 122.645 28.527C122.645 27.983 122.757 27.527 122.981 27.159C123.205 26.775 123.453 26.471 123.725 26.247L127.037 23.415C127.453 23.063 127.797 22.751 128.069 22.479C128.341 22.191 128.557 21.935 128.717 21.711C128.893 21.487 129.013 21.279 129.077 21.087C129.157 20.895 129.197 20.711 129.197 20.535C129.197 20.087 128.997 19.735 128.597 19.479C128.213 19.223 127.733 19.095 127.157 19.095C126.517 19.095 125.941 19.199 125.429 19.407C124.933 19.599 124.517 19.807 124.181 20.031C123.909 19.839 123.685 19.599 123.509 19.311C123.333 19.023 123.245 18.687 123.245 18.303C123.245 17.471 123.637 16.855 124.421 16.455C125.205 16.039 126.261 15.831 127.589 15.831ZM141.091 16.359C141.395 16.263 141.739 16.183 142.123 16.119C142.523 16.055 142.883 16.023 143.203 16.023C143.571 16.023 143.923 16.063 144.259 16.143C144.611 16.207 144.923 16.327 145.195 16.503C145.467 16.663 145.683 16.887 145.843 17.175C146.003 17.463 146.083 17.823 146.083 18.255V24.639H148.219C148.315 24.815 148.411 25.047 148.507 25.335C148.603 25.623 148.651 25.927 148.651 26.247C148.651 26.855 148.515 27.287 148.243 27.543C147.971 27.799 147.627 27.927 147.211 27.927H146.083V30.759C145.907 30.791 145.643 30.831 145.291 30.879C144.939 30.943 144.603 30.975 144.283 30.975C143.931 30.975 143.619 30.959 143.347 30.927C143.075 30.895 142.843 30.823 142.651 30.711C142.475 30.583 142.339 30.407 142.243 30.183C142.147 29.959 142.099 29.655 142.099 29.271V27.927H136.075C135.707 27.735 135.387 27.455 135.115 27.087C134.859 26.703 134.731 26.239 134.731 25.695C134.731 25.391 134.771 25.055 134.851 24.687C134.931 24.319 135.067 23.999 135.259 23.727L141.091 16.359ZM142.315 20.127H142.243L139.051 24.639H142.315V20.127ZM158.444 16.191C158.716 16.367 158.956 16.615 159.164 16.935C159.388 17.239 159.5 17.623 159.5 18.087C159.5 18.343 159.476 18.607 159.428 18.879C159.38 19.135 159.3 19.391 159.188 19.647L154.196 30.951C153.972 30.967 153.756 30.975 153.548 30.975C153.356 30.975 153.172 30.975 152.996 30.975C152.276 30.975 151.692 30.839 151.244 30.567C150.796 30.295 150.572 29.823 150.572 29.151C150.572 28.815 150.652 28.455 150.812 28.071C150.972 27.671 151.188 27.199 151.46 26.655L154.964 19.479H149.084C148.988 19.303 148.892 19.071 148.796 18.783C148.7 18.495 148.652 18.191 148.652 17.871C148.652 17.263 148.788 16.831 149.06 16.575C149.332 16.319 149.676 16.191 150.092 16.191H158.444Z" fill="white"/>
</svg>
